<?xml version="1.0" encoding="UTF-8"?>
<svg width="24" height="24" viewBox="0 0 24 24" fill="none" xmlns="http://www.w3.org/2000/svg">
  <path d="M21 4H3C2.44772 4 2 4.44772 2 5V19C2 19.5523 2.44772 20 3 20H21C21.5523 20 22 19.5523 22 19V5C22 4.44772 21.5523 4 21 4Z" stroke="#4B5563" stroke-width="2" stroke-linecap="round" stroke-linejoin="round"/>
  <path d="M16 8H8C7.44772 8 7 8.44772 7 9V15C7 15.5523 7.44772 16 8 16H16C16.5523 16 17 15.5523 17 15V9C17 8.44772 16.5523 8 16 8Z" stroke="#4B5563" stroke-width="2" stroke-linecap="round" stroke-linejoin="round"/>
  <path d="M12 8V16" stroke="#4B5563" stroke-width="2" stroke-linecap="round" stroke-linejoin="round"/>
  <path d="M7 12H17" stroke="#4B5563" stroke-width="2" stroke-linecap="round" stroke-linejoin="round"/>
</svg> 